<svg xmlns="http://www.w3.org/2000/svg" x="0px" y="0px"
width="50" height="50"
viewBox="0 0 172 172"
style=" fill:#26e07f;"><g fill="none" fill-rule="nonzero" stroke="none" stroke-width="1" stroke-linecap="butt" stroke-linejoin="miter" stroke-miterlimit="10" stroke-dasharray="" stroke-dashoffset="0" font-family="none" font-weight="none" font-size="none" text-anchor="none" style="mix-blend-mode: normal"><path d="M0,172v-172h172v172z" fill="none"></path><g fill="#9b59b6"><path d="M86,6.88c-43.69832,0 -79.12,35.42168 -79.12,79.12c0,43.69832 35.42168,79.12 79.12,79.12c43.69832,0 79.12,-35.42168 79.12,-79.12c0,-43.69832 -35.42168,-79.12 -79.12,-79.12zM113.40304,93.07264c0,15.40088 -10.55392,25.60736 -26.51552,25.60736c-17.25848,0 -28.29056,-12.71768 -28.29056,-32.70064c0,-19.72496 11.20408,-32.65936 28.29056,-32.65936c13.84256,0 23.87704,7.69872 26.1268,20.0724h-7.91544c-2.6832,-8.43488 -8.95432,-12.88968 -18.21136,-12.88968c-12.37024,0 -20.28568,9.94848 -20.28568,25.47664c0,15.74488 7.78472,25.52136 20.3304,25.52136c11.15936,0 18.7308,-7.138 18.7308,-17.69192v-1.5136h-17.56464v-6.83528h25.30464z"></path></g><g fill="#cccccc"><path d="M36.195,153.94v3.7h-10.97v30.42h-4.48v-30.42h-10.94v-3.7z"></path></g></g></svg>